<svg width="118" height="39" viewBox="0 0 118 39" fill="none" xmlns="http://www.w3.org/2000/svg">
<path d="M12.0537 9.22656V27H8.69678V9.22656H12.0537ZM19.2192 16.9048V19.5537H11.1748V16.9048H19.2192ZM20.1592 9.22656V11.8755H11.1748V9.22656H20.1592ZM25.6157 13.792V27H22.3809V13.792H25.6157ZM22.1611 10.3374C22.1611 9.85726 22.3239 9.4585 22.6494 9.14111C22.9831 8.82373 23.4307 8.66504 23.9922 8.66504C24.5537 8.66504 24.9972 8.82373 25.3228 9.14111C25.6564 9.4585 25.8232 9.85726 25.8232 10.3374C25.8232 10.8094 25.6564 11.2041 25.3228 11.5215C24.9972 11.8389 24.5537 11.9976 23.9922 11.9976C23.4307 11.9976 22.9831 11.8389 22.6494 11.5215C22.3239 11.2041 22.1611 10.8094 22.1611 10.3374ZM32.1099 8.25V27H28.875V8.25H32.1099ZM38.3965 16.502V27H35.1738V13.792H38.2134L38.3965 16.502ZM37.9204 19.9199H36.9316C36.9316 19.0003 37.0415 18.154 37.2612 17.3809C37.4891 16.6077 37.8228 15.9364 38.2622 15.3667C38.7017 14.7889 39.2428 14.3413 39.8857 14.0239C40.5368 13.7065 41.2896 13.5479 42.144 13.5479C42.7381 13.5479 43.2834 13.6374 43.7798 13.8164C44.2762 13.9873 44.7035 14.2599 45.0615 14.6343C45.4277 15.0005 45.7085 15.4806 45.9038 16.0747C46.0991 16.6606 46.1968 17.3646 46.1968 18.1865V27H42.9741V18.5161C42.9741 17.8976 42.8846 17.4134 42.7056 17.0635C42.5347 16.7135 42.2865 16.4694 41.9609 16.3311C41.6354 16.1846 41.2448 16.1113 40.7891 16.1113C40.2845 16.1113 39.8491 16.2131 39.4829 16.4165C39.1248 16.6118 38.8278 16.8844 38.5918 17.2344C38.3639 17.5843 38.193 17.9871 38.0791 18.4429C37.9733 18.8986 37.9204 19.391 37.9204 19.9199ZM45.9526 19.3218L44.6221 19.5659C44.6302 18.7358 44.7441 17.9587 44.9639 17.2344C45.1836 16.502 45.505 15.8631 45.9282 15.3179C46.3595 14.7645 46.8926 14.3332 47.5273 14.0239C48.1702 13.7065 48.9108 13.5479 49.749 13.5479C50.4001 13.5479 50.986 13.6414 51.5068 13.8286C52.0358 14.0076 52.4875 14.2965 52.8618 14.6953C53.2362 15.0859 53.521 15.5946 53.7163 16.2212C53.9198 16.8478 54.0215 17.6128 54.0215 18.5161V27H50.7744V18.5039C50.7744 17.861 50.6849 17.3687 50.5059 17.0269C50.335 16.6851 50.0868 16.4491 49.7612 16.3188C49.4357 16.1805 49.0532 16.1113 48.6138 16.1113C48.1662 16.1113 47.7756 16.1968 47.4419 16.3677C47.1164 16.5304 46.8397 16.7583 46.6118 17.0513C46.3921 17.3442 46.2253 17.686 46.1113 18.0767C46.0055 18.4591 45.9526 18.8742 45.9526 19.3218Z" fill="#FCFCFC"/>
<rect x="59" y="3" width="56" height="33" rx="7" fill="#D32929"/>
<path d="M70.6143 8.25V27H67.3794V8.25H70.6143ZM70.1016 19.9199H69.1494C69.1494 19.0003 69.2715 18.154 69.5156 17.3809C69.7598 16.6077 70.1056 15.9364 70.5532 15.3667C71.0008 14.7889 71.5339 14.3413 72.1523 14.0239C72.779 13.7065 73.4707 13.5479 74.2275 13.5479C74.8786 13.5479 75.4686 13.6414 75.9976 13.8286C76.5347 14.0076 76.9945 14.2965 77.377 14.6953C77.7594 15.0941 78.0524 15.6149 78.2559 16.2578C78.4674 16.8926 78.5732 17.6657 78.5732 18.5771V27H75.3262V18.5527C75.3262 17.9424 75.2367 17.4622 75.0576 17.1123C74.8786 16.7542 74.6222 16.4979 74.2886 16.3433C73.9631 16.1886 73.5602 16.1113 73.0801 16.1113C72.5592 16.1113 72.1117 16.2131 71.7373 16.4165C71.363 16.6118 71.0537 16.8844 70.8096 17.2344C70.5736 17.5843 70.3945 17.9871 70.2725 18.4429C70.1585 18.8986 70.1016 19.391 70.1016 19.9199ZM89.2788 23.8628V13.792H92.5259V27H89.4741L89.2788 23.8628ZM89.6938 21.1284L90.6948 21.104C90.6948 21.991 90.5972 22.8089 90.4019 23.5576C90.2065 24.3063 89.9014 24.9574 89.4863 25.5107C89.0794 26.056 88.5627 26.4832 87.936 26.7925C87.3094 27.0936 86.5688 27.2441 85.7144 27.2441C85.0633 27.2441 84.4692 27.1546 83.9321 26.9756C83.395 26.7884 82.9312 26.4995 82.5405 26.1089C82.158 25.7101 81.861 25.2015 81.6494 24.583C81.4378 23.9564 81.332 23.2036 81.332 22.3247V13.792H84.5547V22.3491C84.5547 22.7886 84.6035 23.1548 84.7012 23.4478C84.807 23.7407 84.9494 23.9808 85.1284 24.168C85.3156 24.347 85.5312 24.4772 85.7754 24.5586C86.0277 24.6318 86.2962 24.6685 86.5811 24.6685C87.3623 24.6685 87.9767 24.5138 88.4243 24.2046C88.88 23.8872 89.2056 23.464 89.4009 22.9351C89.5962 22.3979 89.6938 21.7957 89.6938 21.1284ZM95.3701 8.25H98.605V24.0825L98.2876 27H95.3701V8.25ZM107.101 20.2617V20.5181C107.101 21.5028 106.991 22.4061 106.771 23.228C106.56 24.05 106.238 24.762 105.807 25.3643C105.376 25.9583 104.839 26.4222 104.196 26.7559C103.561 27.0814 102.816 27.2441 101.962 27.2441C101.148 27.2441 100.44 27.0854 99.8379 26.7681C99.2438 26.4507 98.7433 26.0031 98.3364 25.4253C97.9295 24.8394 97.604 24.1517 97.3599 23.3623C97.1157 22.5648 96.9326 21.694 96.8105 20.75V20.0542C96.9326 19.1021 97.1157 18.2313 97.3599 17.4419C97.604 16.6525 97.9295 15.9648 98.3364 15.3789C98.7433 14.793 99.2438 14.3413 99.8379 14.0239C100.432 13.7065 101.132 13.5479 101.938 13.5479C102.8 13.5479 103.553 13.7147 104.196 14.0483C104.847 14.3739 105.384 14.8377 105.807 15.4399C106.238 16.034 106.56 16.742 106.771 17.564C106.991 18.3778 107.101 19.277 107.101 20.2617ZM103.866 20.5181V20.2617C103.866 19.7002 103.821 19.1712 103.732 18.6748C103.642 18.1702 103.496 17.7267 103.292 17.3442C103.089 16.9618 102.812 16.6606 102.462 16.4409C102.112 16.2212 101.673 16.1113 101.144 16.1113C100.639 16.1113 100.208 16.1968 99.8501 16.3677C99.5002 16.5386 99.2072 16.7746 98.9712 17.0757C98.7433 17.3768 98.5643 17.7308 98.4341 18.1377C98.312 18.5446 98.2306 18.984 98.1899 19.4561V21.3604C98.2469 21.987 98.3812 22.5526 98.5928 23.0571C98.8044 23.5535 99.1177 23.9482 99.5327 24.2412C99.9559 24.5342 100.501 24.6807 101.168 24.6807C101.689 24.6807 102.125 24.5789 102.475 24.3755C102.825 24.1639 103.101 23.8709 103.305 23.4966C103.508 23.1141 103.651 22.6706 103.732 22.166C103.821 21.6615 103.866 21.1121 103.866 20.5181Z" fill="#FCFCFC"/>
</svg>
