<svg version="1.1" id="Layer_1" xmlns="http://www.w3.org/2000/svg" xmlns:xlink="http://www.w3.org/1999/xlink" x="0px" y="0px" viewBox="0 0 75.8 71.3" enable-background="new 0 0 75.8 71.3" xml:space="preserve">
<path fill="#d3d4d3" d="M68.1,1.5H7.9c-3.1,0-5.7,2.5-5.7,5.7v56.4c0,3.1,2.5,5.7,5.7,5.7h60.2c3.1,0,5.7-2.5,5.7-5.7V7.2
	C73.8,4.1,71.2,1.5,68.1,1.5z M56.7,5.6v28.6H19.2V5.6H56.7z M15.8,60.7H5.5V50.4h10.3V60.7z M15.8,40.2H5.5V30h10.3V40.2z
	 M15.8,19.8H5.5V9.5h10.3V19.8z M19.2,65.3V36.7h37.5v28.6H19.2z M70.4,60.7H60.2V50.4h10.3V60.7z M70.4,40.2H60.2V30h10.3V40.2z
	 M70.4,19.8H60.2V9.5h10.3V19.8z" id="id_102"></path>
</svg>