<svg id="Layer_1" xmlns="http://www.w3.org/2000/svg" viewBox="0 0 48 48"><path d="M42,7H6c-2.757,0-5,2.243-5,5v24c0,2.757,2.243,5,5,5H42c2.757,0,5-2.243,5-5V12c0-2.757-2.243-5-5-5ZM15.65,36H7c-.552,0-1-.448-1-1s.448-1,1-1H15.65c.552,0,1,.448,1,1s-.448,1-1,1Zm1-4c0,.552-.448,1-1,1H7c-.552,0-1-.448-1-1v-6c0-.552,.448-1,1-1H15.65c.552,0,1,.448,1,1v6ZM6,22c0-.552,.448-1,1-1H15.65c.552,0,1,.448,1,1s-.448,1-1,1H7c-.552,0-1-.448-1-1Zm10.65-2.887c0,.552-.448,1-1,1H7c-.552,0-1-.448-1-1v-6c0-.552,.448-1,1-1H15.65c.552,0,1,.448,1,1v6Zm11.675,16.887h-8.65c-.552,0-1-.448-1-1s.448-1,1-1h8.65c.552,0,1,.448,1,1s-.448,1-1,1Zm1-4c0,.552-.448,1-1,1h-8.65c-.552,0-1-.448-1-1v-6c0-.552,.448-1,1-1h8.65c.552,0,1,.448,1,1v6Zm-10.65-10c0-.552,.448-1,1-1h8.65c.552,0,1,.448,1,1s-.448,1-1,1h-8.65c-.552,0-1-.448-1-1Zm10.65-2.887c0,.552-.448,1-1,1h-8.65c-.552,0-1-.448-1-1v-6c0-.552,.448-1,1-1h8.65c.552,0,1,.448,1,1v6Zm11.675,16.887h-8.65c-.552,0-1-.448-1-1s.448-1,1-1h8.65c.552,0,1,.448,1,1s-.448,1-1,1Zm1-3.887c0,.552-.448,1-1,1h-8.65c-.552,0-1-.448-1-1v-6c0-.552,.448-1,1-1h8.65c.552,0,1,.448,1,1v6Zm-1-9.113h-8.65c-.552,0-1-.448-1-1s.448-1,1-1h8.65c.552,0,1,.448,1,1s-.448,1-1,1Zm1-3.887c0,.552-.448,1-1,1h-8.65c-.552,0-1-.448-1-1v-6c0-.552,.448-1,1-1h8.65c.552,0,1,.448,1,1v6Z" id="id_101" style="fill: #d3d4d3;"></path></svg>